<svg version="1.1" viewBox="0.0 0.0 288.0 288.0" fill="none" stroke="none" stroke-linecap="square" stroke-miterlimit="10" xmlns:xlink="http://www.w3.org/1999/xlink" xmlns="http://www.w3.org/2000/svg"><clipPath id="g35db6038c44_0_7.0"><path d="m0 0l288.0 0l0 288.0l-288.0 0l0 -288.0z" clip-rule="nonzero"/></clipPath><g clip-path="url(#g35db6038c44_0_7.0)"><path fill="#ffffff" d="m0 0l288.0 0l0 288.0l-288.0 0z" fill-rule="evenodd"/><path fill="#000000" fill-opacity="0.0" d="m86.47559 48.00945l115.05512 0l0 193.25984l-115.05512 0z" fill-rule="evenodd"/><path fill="#000000" d="m95.35059 124.24944l-5.328125 -47.9375l12.765625 0l1.6875 20.09375l0.625 16.171875l1.546875 0l2.859375 -36.265625l13.6875 0l2.625 36.265625l1.546875 0l0.546875 -16.171875l1.6249924 -20.09375l11.515625 0l-5.328125 47.9375l-16.703117 0l-2.546875 -36.109375l-1.546875 0l-2.796875 36.109375l-16.78125 0zm52.895363 -47.9375l21.1875 0l0 4.640625l3.09375 0q1.3125 -2.953125 3.9375 -4.53125q2.640625 -1.578125 6.046875 -1.578125q5.640625 0 8.421875 4.453125q2.78125 4.4375 2.78125 13.328125l0 7.890625l-14.0625 0l0 -6.1875q0 -6.03125 -4.421875 -6.03125q-2.703125 0 -3.984375 2.46875q-1.265625 2.46875 -1.265625 7.734375l0 13.53125l13.0625 0l0 12.21875l-34.09375 0l0 -12.21875l7.734375 0l0 -23.5l-8.4375 0l0 -12.21875z" fill-rule="nonzero"/><path fill="#000000" d="m136.41309 169.11194l0 47.9375l-13.906242 0l0 -4.640625l-3.09375 0q-1.46875 2.9375 -4.265625 4.5625q-2.78125 1.625 -6.5625 1.625q-4.640625 0 -7.890625 -2.234375q-3.25 -2.25 -4.953125 -6.578125q-1.703125 -4.328125 -1.703125 -10.515625l0 -30.15625l13.921875 0l0 26.828125q0 4.875 1.8125 7.3125q1.828125 2.421875 5.453125 2.421875q3.640625 0 5.453125 -2.421875q1.828125 -2.4375 1.828125 -7.3125l0 -26.828125l13.906242 0zm11.8328705 63.40625l0 -63.40625l13.921875 0l0 4.5625l3.09375 0q1.3125 -2.71875 4.0625 -4.265625q2.75 -1.546875 6.140625 -1.546875q5.8125 0 10.0625 3.0625q4.25 3.046875 6.5625 8.703125q2.328125 5.640625 2.328125 13.453125q0 7.734375 -2.328125 13.421875q-2.3125 5.671875 -6.5625 8.734375q-4.25 3.046875 -10.0625 3.046875q-3.3125 0 -6.109375 -1.578125q-2.78125 -1.59375 -4.09375 -4.21875l-3.09375 0l0 20.03125l-13.921875 0zm22.890625 -26.453125q4.71875 0 7.3125 -3.4375q2.59375 -3.4375 2.59375 -9.546875q0 -6.1875 -2.59375 -9.59375q-2.59375 -3.40625 -7.3125 -3.40625q-4.71875 0 -7.34375 3.40625q-2.625 3.40625 -2.625 9.59375q0 6.1875 2.625 9.59375q2.625 3.390625 7.34375 3.390625z" fill-rule="nonzero"/></g></svg>